<svg width="66" height="66" viewBox="0 0 66 66" fill="none" xmlns="http://www.w3.org/2000/svg">
<g clip-path="url(#clip0)">
<path d="M18.0968 45.7742H23.4194V64.9355H18.0968V45.7742Z" fill="#DFF0FE"/>
<path d="M42.5807 45.7742H47.9032V64.9355H42.5807V45.7742Z" fill="#DFF0FE"/>
<path d="M24.4839 26.6129C24.4839 27.7575 24.9351 28.8251 25.7412 29.6204C25.7334 30.7509 26.169 31.8248 26.9778 32.6362C27.7881 33.4449 28.8579 33.8888 29.9925 33.8717C30.7889 34.6779 31.8565 35.129 33 35.129C34.1435 35.129 35.2112 34.6779 36.0075 33.8717C37.1229 33.8675 38.2119 33.4439 39.0233 32.6351C39.831 31.8248 40.2666 30.7509 40.2588 29.6204C41.065 28.8251 41.5161 27.7575 41.5161 26.6129H24.4839Z" fill="#DFF0FE"/>
<path d="M50.5676 22.3548C48.4386 16.8451 46.8325 12.2076 45.7742 6.38708H20.2258C19.1675 12.2076 17.5614 16.8451 15.4324 22.3548H50.5676Z" fill="#DFF0FE"/>
<path d="M17.0323 29.8065H19.1613V31.9355H17.0323V29.8065Z" fill="#4788C7"/>
<path d="M46.8387 29.8065H48.9678V31.9355H46.8387V29.8065Z" fill="#4788C7"/>
<path d="M62.8065 36.1936V31.9355H66V29.3943L63.083 26.1872C58.2682 20.8911 54.9811 14.4318 53.4826 7.45161H55.3548V8.51613H59.6129C61.9613 8.51613 63.871 6.60645 63.871 4.25806C63.871 1.90968 61.9613 0 59.6129 0H55.3548V1.06452H10.6452V0H6.3871C4.03872 0 2.12903 1.90968 2.12903 4.25806C2.12903 6.60645 4.03872 8.51613 6.3871 8.51613H10.6452V7.45161H12.5174C11.0189 14.4318 7.73074 20.8911 2.91702 26.1872L0 29.3943V31.9355H3.19355V36.1936H6.3871V40.4516H5.81741L5.50139 40.9251C4.16762 42.9268 2.47625 44.6182 0.473523 45.953L0 46.269V48.9677H2.12903V66H63.871V48.9677H66V46.269L65.5265 45.953C63.5248 44.6192 61.8334 42.9279 60.4986 40.9251L60.1826 40.4516H59.6129V36.1936H62.8065ZM63.4962 29.8065H57.4839V27.6774C57.4839 24.1548 54.6193 21.2903 51.0968 21.2903H41.5161V18.0968C43.2766 18.0968 44.7097 16.6637 44.7097 14.9032C44.7097 13.1427 43.2766 11.7097 41.5161 11.7097C39.7556 11.7097 38.3226 13.1427 38.3226 14.9032H37.769L34.7797 11.1655C35.6317 10.5921 36.1936 9.61911 36.1936 8.51613C36.1936 8.14137 36.1171 7.78583 35.9976 7.45161H51.2829C52.8126 14.9734 56.3372 21.9302 61.5086 27.6197L63.4962 29.8065ZM24.4839 15.9677C23.8976 15.9677 23.4194 15.4895 23.4194 14.9032C23.4194 14.3169 23.8976 13.8387 24.4839 13.8387C25.0702 13.8387 25.5484 14.3169 25.5484 14.9032C25.5484 15.4895 25.0702 15.9677 24.4839 15.9677ZM27.6774 17.0323H38.3226C38.9089 17.0323 39.3871 17.5105 39.3871 18.0968V21.2903H26.6129V18.0968C26.6129 17.5105 27.0911 17.0323 27.6774 17.0323ZM33 7.45161C33.5863 7.45161 34.0645 7.92981 34.0645 8.51613C34.0645 9.10245 33.5863 9.58065 33 9.58065C32.4137 9.58065 31.9355 9.10245 31.9355 8.51613C31.9355 7.92981 32.4137 7.45161 33 7.45161ZM30.9562 14.9032L33 12.3485L35.0438 14.9032H30.9562ZM40.4516 14.9032C40.4516 14.3169 40.9298 13.8387 41.5161 13.8387C42.1024 13.8387 42.5806 14.3169 42.5806 14.9032C42.5806 15.4895 42.1024 15.9677 41.5161 15.9677C40.9298 15.9677 40.4516 15.4895 40.4516 14.9032ZM57.4839 2.12903H59.6129C60.7871 2.12903 61.7419 3.08387 61.7419 4.25806C61.7419 5.43226 60.7871 6.3871 59.6129 6.3871H57.4839V2.12903ZM8.51613 6.3871H6.3871C5.21291 6.3871 4.25806 5.43226 4.25806 4.25806C4.25806 3.08387 5.21291 2.12903 6.3871 2.12903H8.51613V6.3871ZM10.6452 3.19355H55.3548V5.32258H10.6452V3.19355ZM4.49145 27.6197C9.66381 21.9302 13.1874 14.9734 14.7171 7.45161H30.0024C29.8829 7.78583 29.8065 8.14137 29.8065 8.51613C29.8065 9.61911 30.3683 10.5921 31.2203 11.1655L28.231 14.9032H27.6774C27.6774 13.1427 26.2444 11.7097 24.4839 11.7097C22.7234 11.7097 21.2903 13.1427 21.2903 14.9032C21.2903 16.6637 22.7234 18.0968 24.4839 18.0968V21.2903H14.9032C11.3807 21.2903 8.51613 24.1548 8.51613 27.6774V29.8065H2.5038L4.49145 27.6197ZM5.32258 31.9355H10.6452V27.6774C10.6452 25.329 12.5548 23.4194 14.9032 23.4194H51.0968C53.4452 23.4194 55.3548 25.329 55.3548 27.6774V31.9355H60.6774V34.0645H53.2258V28.7419C53.2258 26.9814 51.7928 25.5484 50.0323 25.5484H15.9677C14.2072 25.5484 12.7742 26.9814 12.7742 28.7419V34.0645H5.32258V31.9355ZM55.4089 42.5806C55.5456 44.0709 55.9682 45.5112 56.6548 46.8387H53.2258V42.5806H55.4089ZM46.8387 44.7097H44.7097V42.5806H46.8387V44.7097ZM42.5806 44.7097H40.4516V42.5806H42.5806V44.7097ZM38.3226 44.7097H36.1936V42.5806H38.3226V44.7097ZM34.0645 44.7097H31.9355V42.5806H34.0645V44.7097ZM29.8065 44.7097H27.6774V42.5806H29.8065V44.7097ZM25.5484 44.7097H23.4194V42.5806H25.5484V44.7097ZM21.2903 44.7097H19.1613V42.5806H21.2903V44.7097ZM19.1613 46.8387H46.8387V63.871H19.1613V46.8387ZM17.0323 40.4516V63.871H14.9032V28.7419C14.9032 28.1556 15.3814 27.6774 15.9677 27.6774H28.8932C29.3688 29.5086 31.0222 30.871 33 30.871C34.9778 30.871 36.6312 29.5086 37.1068 27.6774H50.0323C50.6186 27.6774 51.0968 28.1556 51.0968 28.7419V63.871H48.9677V40.4516H17.0323ZM4.25806 53.2258H7.45161V55.3548H4.25806V53.2258ZM12.7742 42.5806V46.8387H9.34518C10.0318 45.5112 10.4544 44.0709 10.5911 42.5806H12.7742ZM12.7742 48.9677V51.0968H9.58065V48.9677H12.7742ZM12.7742 53.2258V55.3548H9.58065V53.2258H12.7742ZM4.25806 57.4839H7.45161V59.6129H4.25806V57.4839ZM9.58065 57.4839H12.7742V59.6129H9.58065V57.4839ZM12.7742 61.7419V63.871H9.58065V61.7419H12.7742ZM31.1667 27.6774H34.8333C34.4637 28.311 33.7844 28.7419 33 28.7419C32.2156 28.7419 31.5363 28.311 31.1667 27.6774V27.6774ZM53.2258 61.7419H56.4194V63.871H53.2258V61.7419ZM53.2258 59.6129V57.4839H56.4194V59.6129H53.2258ZM58.5484 57.4839H61.7419V59.6129H58.5484V57.4839ZM58.5484 55.3548V53.2258H61.7419V55.3548H58.5484ZM56.4194 55.3548H53.2258V53.2258H56.4194V55.3548ZM53.2258 51.0968V48.9677H56.4194V51.0968H53.2258ZM8.51613 36.1936H12.7742V40.4516H8.51613V36.1936ZM6.9469 42.5806H8.43712C8.26923 44.0761 7.76556 45.5112 6.92247 46.7758L6.88193 46.8387H2.88272C4.43999 45.625 5.80182 44.1987 6.9469 42.5806V42.5806ZM7.45161 48.9677V51.0968H4.25806V48.9677H7.45161ZM4.25806 61.7419H7.45161V63.871H4.25806V61.7419ZM58.5484 63.871V61.7419H61.7419V63.871H58.5484ZM61.7419 51.0968H58.5484V48.9677H61.7419V51.0968ZM63.1173 46.8387H59.1181L59.0765 46.7758C58.2334 45.5112 57.7297 44.0761 57.5618 42.5806H59.0521C60.1982 44.1987 61.56 45.625 63.1173 46.8387ZM57.4839 40.4516H53.2258V36.1936H57.4839V40.4516Z" fill="#4788C7"/>
<path d="M31.9355 18.0968H34.0645V20.2258H31.9355V18.0968Z" fill="#4788C7"/>
<path d="M36.1935 18.0968H38.3226V20.2258H36.1935V18.0968Z" fill="#4788C7"/>
<path d="M27.6774 18.0968H29.8064V20.2258H27.6774V18.0968Z" fill="#4788C7"/>
</g>
<defs>
<clipPath id="clip0">
<rect width="66" height="66" fill="white"/>
</clipPath>
</defs>
</svg>
