<svg width="92" height="31" viewBox="0 0 92 31" fill="none" xmlns="http://www.w3.org/2000/svg">
<path d="M28.0286 14.3637C27.5093 14.5835 26.9842 14.8495 26.4534 15.1617C25.9225 15.474 25.4436 15.8267 25.0166 16.2199C24.6012 16.6016 24.255 17.0295 23.978 17.5036C23.7126 17.9662 23.5799 18.4635 23.5799 18.9955C23.5799 19.5853 23.7299 20.0479 24.03 20.3833C24.3415 20.7187 24.757 20.8864 25.2763 20.8864C25.7148 20.8864 26.1476 20.7592 26.5745 20.5048C27.0015 20.2388 27.4862 19.8976 28.0286 19.4813V14.3637ZM18.1964 10.2697C18.3811 9.52957 18.7042 8.8588 19.1658 8.25741C19.6274 7.64447 20.1986 7.12983 20.8795 6.71349C21.5719 6.28558 22.3566 5.95598 23.2337 5.72468C24.1223 5.49338 25.0801 5.37773 26.1072 5.37773C27.3766 5.37773 28.4729 5.49338 29.3961 5.72468C30.3193 5.95598 31.0752 6.28558 31.6637 6.71349C32.2638 7.12983 32.7023 7.63869 32.9793 8.24007C33.2678 8.82988 33.4121 9.49487 33.4121 10.235V20.4007C33.4121 21.1293 33.6371 21.748 34.0872 22.2569C34.5372 22.7657 35.1719 23.1878 35.9913 23.5232H29.6211C29.4365 23.5232 29.2576 23.4712 29.0845 23.3671C28.9114 23.263 28.7556 23.13 28.6171 22.9681C28.4787 22.7946 28.3575 22.6096 28.2536 22.413C28.1498 22.2164 28.0748 22.0256 28.0286 21.8405C27.7055 22.1412 27.3997 22.4188 27.1112 22.6732C26.8227 22.9161 26.5053 23.1242 26.1591 23.2977C25.8129 23.4712 25.4263 23.6042 24.9993 23.6967C24.5723 23.8008 24.0588 23.8528 23.4587 23.8528C22.6394 23.8528 21.9008 23.7372 21.243 23.5059C20.5968 23.2746 20.0428 22.9565 19.5812 22.5518C19.1312 22.1354 18.785 21.6497 18.5426 21.0946C18.3003 20.5279 18.1791 19.9149 18.1791 19.2557C18.1791 18.238 18.4619 17.3649 19.0273 16.6363C19.5928 15.9077 20.3371 15.2716 21.2603 14.728C22.1951 14.1845 23.251 13.7103 24.4281 13.3055C25.6052 12.9008 26.8053 12.5133 28.0286 12.1433V10.4085C28.0286 9.84182 27.9709 9.36187 27.8555 8.96866C27.7401 8.56389 27.5785 8.24007 27.3708 7.9972C27.1631 7.74277 26.9092 7.56351 26.6092 7.45943C26.3207 7.34378 25.9975 7.28595 25.6398 7.28595C25.2128 7.28595 24.832 7.36691 24.4973 7.52882C24.1627 7.69073 23.8742 7.91046 23.6318 8.18802C23.3895 8.46558 23.1933 8.78362 23.0433 9.14214C22.8933 9.50065 22.7836 9.87652 22.7144 10.2697H18.1964Z" fill="white"/>
<path d="M66.291 14.3637C65.7717 14.5835 65.2466 14.8495 64.7157 15.1617C64.1849 15.474 63.706 15.8267 63.279 16.2199C62.8636 16.6016 62.5173 17.0295 62.2404 17.5036C61.975 17.9662 61.8423 18.4635 61.8423 18.9955C61.8423 19.5853 61.9923 20.0479 62.2923 20.3833C62.6039 20.7187 63.0193 20.8864 63.5386 20.8864C63.9772 20.8864 64.4099 20.7592 64.8369 20.5048C65.2639 20.2388 65.7486 19.8976 66.291 19.4813V14.3637ZM56.4588 10.2697C56.6434 9.52957 56.9666 8.8588 57.4282 8.25741C57.8898 7.64447 58.461 7.12983 59.1419 6.71349C59.8343 6.28558 60.619 5.95598 61.496 5.72468C62.3846 5.49338 63.3425 5.37773 64.3695 5.37773C65.6389 5.37773 66.7353 5.49338 67.6585 5.72468C68.5817 5.95598 69.3375 6.28558 69.9261 6.71349C70.5262 7.12983 70.9647 7.63869 71.2417 8.24007C71.5302 8.82988 71.6744 9.49487 71.6744 10.235V20.4007C71.6744 21.1293 71.8995 21.748 72.3495 22.2569C72.7996 22.7657 73.4343 23.1878 74.2536 23.5232H67.8835C67.6988 23.5232 67.52 23.4712 67.3469 23.3671C67.1738 23.263 67.018 23.13 66.8795 22.9681C66.741 22.7946 66.6199 22.6096 66.516 22.413C66.4121 22.2164 66.3371 22.0256 66.291 21.8405C65.9678 22.1412 65.662 22.4188 65.3735 22.6732C65.085 22.9161 64.7677 23.1242 64.4215 23.2977C64.0753 23.4712 63.6887 23.6042 63.2617 23.6967C62.8347 23.8008 62.3212 23.8528 61.7211 23.8528C60.9017 23.8528 60.1632 23.7372 59.5054 23.5059C58.8591 23.2746 58.3052 22.9565 57.8436 22.5518C57.3935 22.1354 57.0473 21.6497 56.805 21.0946C56.5627 20.5279 56.4415 19.9149 56.4415 19.2557C56.4415 18.238 56.7242 17.3649 57.2897 16.6363C57.8551 15.9077 58.5995 15.2716 59.5227 14.728C60.4574 14.1845 61.5134 13.7103 62.6904 13.3055C63.8675 12.9008 65.0677 12.5133 66.291 12.1433V10.4085C66.291 9.84182 66.2333 9.36187 66.1179 8.96866C66.0025 8.56389 65.8409 8.24007 65.6332 7.9972C65.4255 7.74277 65.1716 7.56351 64.8715 7.45943C64.583 7.34378 64.2599 7.28595 63.9022 7.28595C63.4752 7.28595 63.0944 7.36691 62.7597 7.52882C62.425 7.69073 62.1365 7.91046 61.8942 8.18802C61.6518 8.46558 61.4557 8.78362 61.3056 9.14214C61.1556 9.50065 61.046 9.87652 60.9767 10.2697H56.4588Z" fill="white"/>
<path d="M15.5791 17.2955C15.5791 18.2554 15.4003 19.1401 15.0425 19.9496C14.6963 20.7476 14.1712 21.4357 13.4673 22.014C12.7634 22.5922 11.8805 23.0491 10.8188 23.3844C9.7687 23.7083 8.53968 23.8702 7.13178 23.8702C6.34706 23.8702 5.62003 23.8008 4.9507 23.662C4.28138 23.5232 3.65821 23.344 3.08121 23.1242C2.5042 22.8929 1.96182 22.6385 1.45405 22.3609C0.946288 22.0718 0.461604 21.7769 0 21.4762L1.62715 19.4119C1.8695 19.6547 2.16377 19.8976 2.50997 20.1405C2.85618 20.3833 3.237 20.6031 3.65244 20.7997C4.07943 20.9963 4.53526 21.1582 5.01994 21.2854C5.50463 21.4126 6.00662 21.4762 6.52593 21.4762C7.54146 21.4762 8.34349 21.2102 8.93204 20.6782C9.52058 20.1462 9.81486 19.4292 9.81486 18.5271V2.68886L8.01806 0H9.81486H12.8961L15.5791 2.68886V17.2955Z" fill="white"/>
<path fill-rule="evenodd" clip-rule="evenodd" d="M37.4661 7.37269L41.257 5.39508H42.8669V7.19922C43.4785 6.67879 44.1824 6.25667 44.9787 5.93285C45.7865 5.60903 46.7213 5.44712 47.7829 5.44712C48.9139 5.44712 49.9409 5.67264 50.8642 6.12367C51.7874 6.56314 52.5779 7.16452 53.2356 7.92781C53.8934 8.67954 54.4012 9.55848 54.7589 10.5646C55.1167 11.5708 55.2956 12.6406 55.2956 13.7739C55.2956 15.2311 55.0821 16.5784 54.6551 17.8159C54.2281 19.0418 53.6222 20.1058 52.8375 21.0078C52.0528 21.8983 51.1007 22.598 49.9813 23.1069C48.8619 23.6042 47.6041 23.8528 46.2077 23.8528C45.4922 23.8528 44.8748 23.8239 44.3555 23.7661C43.8478 23.7083 43.3515 23.581 42.8669 23.3844V29.411L41.2813 31H37.4661V7.37269ZM43.1092 19.8109C42.9476 19.4292 42.8669 19.0244 42.8669 18.5965V10.7902C43.0861 10.4895 43.3227 10.2061 43.5766 9.94012C43.842 9.67413 44.119 9.44283 44.4075 9.24622C44.7075 9.03805 45.0191 8.87614 45.3422 8.76049C45.6653 8.64484 45.9942 8.58702 46.3289 8.58702C46.7905 8.58702 47.2175 8.73736 47.6098 9.03805C48.0137 9.32718 48.36 9.76086 48.6485 10.3391C48.937 10.9174 49.162 11.6402 49.3236 12.5076C49.4851 13.3749 49.5659 14.3811 49.5659 15.526C49.5659 16.4165 49.4736 17.2376 49.2889 17.9894C49.1158 18.7411 48.8735 19.3945 48.5619 19.9496C48.2619 20.4932 47.9041 20.9211 47.4887 21.2334C47.0848 21.534 46.6578 21.6844 46.2077 21.6844C45.7 21.6844 45.2384 21.6034 44.8229 21.4415C44.419 21.2796 44.0728 21.0599 43.7843 20.7823C43.4958 20.5048 43.2708 20.1809 43.1092 19.8109Z" fill="white"/>
<path d="M86.6512 11.3973C86.6512 10.9463 86.5992 10.5473 86.4954 10.2003C86.403 9.84182 86.2703 9.54691 86.0972 9.31561C85.9357 9.07275 85.7453 8.89349 85.526 8.77784C85.3183 8.65062 85.099 8.58702 84.8682 8.58702C84.6374 8.58702 84.372 8.63328 84.072 8.7258C83.7719 8.81832 83.4546 8.95132 83.1199 9.12479C82.7968 9.2867 82.4621 9.48909 82.1159 9.73195C81.7697 9.97482 81.4408 10.2466 81.1292 10.5473V23.5232H75.7285V7.37269L79.5194 5.39508H81.1292V7.19922C81.9601 6.59784 82.8487 6.15837 83.795 5.88081C84.7413 5.59168 85.6818 5.44712 86.6165 5.44712C87.3436 5.44712 88.0302 5.59168 88.6765 5.88081C89.3342 6.15837 89.9055 6.54001 90.3902 7.02574C90.8864 7.51147 91.2787 8.08394 91.5672 8.74314C91.8557 9.39079 92 10.0847 92 10.8248V25.9099L90.3902 27.5232H86.6512H85.0378L86.6512 25.9099V11.3973Z" fill="white"/>
</svg>
