<svg width="190" height="64" viewBox="0 0 190 64" fill="none" xmlns="http://www.w3.org/2000/svg">
<path d="M57.8852 29.6542C56.8127 30.1078 55.7283 30.657 54.632 31.3016C53.5357 31.9463 52.5466 32.6745 51.6648 33.4863C50.8068 34.2742 50.0918 35.1576 49.5198 36.1365C48.9717 37.0916 48.6976 38.1183 48.6976 39.2166C48.6976 40.4342 49.0074 41.3893 49.6271 42.0817C50.2706 42.7741 51.1285 43.1203 52.201 43.1203C53.1067 43.1203 54.0004 42.8577 54.8822 42.3324C55.764 41.7832 56.765 41.0789 57.8852 40.2194V29.6542ZM37.5796 21.202C37.9609 19.6739 38.6282 18.2891 39.5815 17.0476C40.5349 15.7821 41.7146 14.7196 43.1207 13.8601C44.5507 12.9767 46.1713 12.2962 47.9826 11.8187C49.8177 11.3412 51.7959 11.1024 53.917 11.1024C56.5386 11.1024 58.8027 11.3412 60.7093 11.8187C62.616 12.2962 64.177 12.9767 65.3925 13.8601C66.6318 14.7196 67.5374 15.7702 68.1094 17.0117C68.7053 18.2294 69.0032 19.6023 69.0032 21.1304V42.1175C69.0032 43.6217 69.4679 44.8991 70.3974 45.9496C71.3269 47.0002 72.6377 47.8717 74.3298 48.5641H61.1741C60.7928 48.5641 60.4233 48.4566 60.0659 48.2417C59.7084 48.0269 59.3866 47.7523 59.1006 47.418C58.8146 47.0599 58.5644 46.6779 58.3499 46.272C58.1354 45.8661 57.9805 45.4721 57.8852 45.0901C57.2178 45.7109 56.5863 46.2839 55.9904 46.8092C55.3946 47.3106 54.7392 47.7403 54.0242 48.0985C53.3093 48.4566 52.5109 48.7312 51.629 48.9222C50.7472 49.1371 49.6867 49.2445 48.4474 49.2445C46.7552 49.2445 45.2299 49.0058 43.8715 48.5283C42.5368 48.0507 41.3928 47.3941 40.4395 46.5585C39.5101 45.6989 38.7951 44.6961 38.2946 43.5501C37.7941 42.3802 37.5438 41.1147 37.5438 39.7538C37.5438 37.6527 38.1277 35.85 39.2956 34.3458C40.4634 32.8416 42.0006 31.5284 43.9072 30.4063C45.8377 29.2841 48.0184 28.3052 50.4493 27.4695C52.8803 26.6338 55.3589 25.834 57.8852 25.0699V21.4885C57.8852 20.3186 57.766 19.3277 57.5277 18.5159C57.2893 17.6803 56.9557 17.0118 56.5267 16.5104C56.0977 15.9851 55.5734 15.615 54.9537 15.4001C54.3579 15.1613 53.6906 15.042 52.9518 15.042C52.0699 15.042 51.2835 15.2091 50.5923 15.5434C49.9012 15.8776 49.3053 16.3313 48.8048 16.9043C48.3044 17.4773 47.8992 18.1339 47.5894 18.8741C47.2795 19.6143 47.0531 20.3902 46.9101 21.202H37.5796Z" fill="white"/>
<path d="M136.905 29.6542C135.833 30.1078 134.748 30.657 133.652 31.3016C132.556 31.9463 131.567 32.6745 130.685 33.4863C129.827 34.2742 129.112 35.1576 128.54 36.1365C127.992 37.0916 127.718 38.1183 127.718 39.2166C127.718 40.4342 128.028 41.3893 128.647 42.0817C129.291 42.7741 130.149 43.1203 131.221 43.1203C132.127 43.1203 133.02 42.8577 133.902 42.3324C134.784 41.7832 135.785 41.0789 136.905 40.2194V29.6542ZM116.6 21.202C116.981 19.6739 117.648 18.2891 118.602 17.0476C119.555 15.7821 120.735 14.7196 122.141 13.8601C123.571 12.9767 125.191 12.2962 127.003 11.8187C128.838 11.3412 130.816 11.1024 132.937 11.1024C135.559 11.1024 137.823 11.3412 139.729 11.8187C141.636 12.2962 143.197 12.9767 144.413 13.8601C145.652 14.7196 146.558 15.7702 147.13 17.0117C147.725 18.2294 148.023 19.6023 148.023 21.1304V42.1175C148.023 43.6217 148.488 44.8991 149.417 45.9496C150.347 47.0002 151.658 47.8717 153.35 48.5641H140.194C139.813 48.5641 139.443 48.4566 139.086 48.2417C138.728 48.0269 138.407 47.7523 138.121 47.418C137.835 47.0599 137.584 46.6779 137.37 46.272C137.155 45.8661 137.001 45.4721 136.905 45.0901C136.238 45.7109 135.606 46.2839 135.011 46.8092C134.415 47.3106 133.759 47.7403 133.044 48.0985C132.329 48.4566 131.531 48.7312 130.649 48.9222C129.767 49.1371 128.707 49.2445 127.467 49.2445C125.775 49.2445 124.25 49.0058 122.892 48.5283C121.557 48.0507 120.413 47.3941 119.46 46.5585C118.53 45.6989 117.815 44.6961 117.315 43.5501C116.814 42.3802 116.564 41.1147 116.564 39.7538C116.564 37.6527 117.148 35.85 118.316 34.3458C119.483 32.8416 121.021 31.5284 122.927 30.4063C124.858 29.2841 127.038 28.3052 129.469 27.4695C131.9 26.6338 134.379 25.834 136.905 25.0699V21.4885C136.905 20.3186 136.786 19.3277 136.548 18.5159C136.309 17.6803 135.976 17.0118 135.547 16.5104C135.118 15.9851 134.593 15.615 133.974 15.4001C133.378 15.1613 132.711 15.042 131.972 15.042C131.09 15.042 130.304 15.2091 129.612 15.5434C128.921 15.8776 128.325 16.3313 127.825 16.9043C127.324 17.4773 126.919 18.1339 126.609 18.8741C126.3 19.6143 126.073 20.3902 125.93 21.202H116.6Z" fill="white"/>
<path d="M32.1743 35.7068C32.1743 37.6885 31.8049 39.515 31.0661 41.1863C30.3511 42.8338 29.2667 44.2544 27.8129 45.4482C26.3591 46.642 24.5359 47.5852 22.3433 48.2776C20.1745 48.9461 17.6363 49.2804 14.7287 49.2804C13.1081 49.2804 11.6066 49.1371 10.2243 48.8506C8.84198 48.5641 7.555 48.194 6.36336 47.7403C5.17172 47.2628 4.05158 46.7375 3.00294 46.1645C1.95429 45.5676 0.953313 44.9588 0 44.338L3.36043 40.0761C3.86092 40.5775 4.46865 41.0789 5.18364 41.5803C5.89862 42.0817 6.68511 42.5353 7.54309 42.9412C8.4249 43.3471 9.3663 43.6814 10.3673 43.944C11.3683 44.2067 12.405 44.338 13.4775 44.338C15.5747 44.338 17.2311 43.7888 18.4466 42.6905C19.6621 41.5922 20.2698 40.1119 20.2698 38.2496V5.5512L16.559 0H20.2698H26.6332L32.1743 5.5512V35.7068Z" fill="white"/>
<path fill-rule="evenodd" clip-rule="evenodd" d="M77.3756 15.221L85.2047 11.1382H88.5294V14.8629C89.7925 13.7885 91.2463 12.917 92.8908 12.2485C94.5591 11.5799 96.4896 11.2457 98.6822 11.2457C101.018 11.2457 103.139 11.7112 105.046 12.6424C106.952 13.5497 108.585 14.7913 109.943 16.3671C111.302 17.919 112.35 19.7336 113.089 21.8109C113.828 23.8881 114.197 26.0966 114.197 28.4365C114.197 31.4449 113.756 34.2264 112.875 36.7812C111.993 39.3121 110.742 41.5087 109.121 43.371C107.5 45.2095 105.534 46.654 103.222 47.7045C100.911 48.7312 98.3128 49.2445 95.429 49.2445C93.9514 49.2445 92.6763 49.1849 91.6038 49.0655C90.5552 48.9461 89.5304 48.6835 88.5294 48.2776V60.7194L85.2548 64H77.3756V15.221ZM89.0299 40.8998C88.6962 40.1119 88.5294 39.2763 88.5294 38.3928V22.2764C88.9822 21.6557 89.4708 21.0707 89.9951 20.5215C90.5433 19.9724 91.1153 19.4949 91.7111 19.089C92.3307 18.6592 92.9742 18.3249 93.6415 18.0862C94.3088 17.8474 94.9881 17.728 95.6792 17.728C96.6326 17.728 97.5144 18.0384 98.3247 18.6592C99.1588 19.2561 99.8738 20.1515 100.47 21.3453C101.065 22.5391 101.53 24.0313 101.864 25.822C102.198 27.6128 102.364 29.69 102.364 32.0537C102.364 33.8922 102.174 35.5874 101.792 37.1393C101.435 38.6913 100.934 40.0403 100.291 41.1863C99.6712 42.3085 98.9324 43.1919 98.0744 43.8366C97.2403 44.4574 96.3585 44.7678 95.429 44.7678C94.3804 44.7678 93.427 44.6006 92.5691 44.2664C91.7349 43.9321 91.0199 43.4785 90.4241 42.9054C89.8283 42.3324 89.3635 41.6639 89.0299 40.8998Z" fill="white"/>
<path d="M178.953 23.5299C178.953 22.5988 178.846 21.775 178.632 21.0588C178.441 20.3186 178.167 19.7098 177.81 19.2322C177.476 18.7308 177.083 18.3608 176.63 18.122C176.201 17.8594 175.748 17.728 175.271 17.728C174.795 17.728 174.247 17.8235 173.627 18.0145C173.007 18.2056 172.352 18.4801 171.661 18.8383C170.993 19.1725 170.302 19.5904 169.587 20.0918C168.872 20.5932 168.193 21.1543 167.549 21.775V48.5641H156.396V15.221L164.225 11.1382H167.549V14.8629C169.265 13.6213 171.101 12.714 173.055 12.141C175.009 11.5441 176.952 11.2457 178.882 11.2457C180.383 11.2457 181.802 11.5441 183.136 12.141C184.495 12.714 185.674 13.502 186.675 14.5048C187.7 15.5076 188.51 16.6894 189.106 18.0504C189.702 19.3874 190 20.82 190 22.3481V53.4914L186.675 56.8221H178.953H175.622L178.953 53.4914V23.5299Z" fill="white"/>
</svg>
