<svg width="66" height="66" viewBox="0 0 66 66" fill="none" xmlns="http://www.w3.org/2000/svg">
<g clip-path="url(#clip0)">
<path d="M47.8438 4.25682L43.932 11.0864C43.7608 10.3704 43.3976 9.69723 42.8418 9.15189C42.4676 8.76728 42.0298 8.47869 41.57 8.28612V1.87347C43.7931 2.32228 45.9093 3.12386 47.8438 4.25682V4.25682Z" fill="#DFF0FE"/>
<path d="M47.1169 14.5814L54.3954 10.4237L54.5023 10.3491C55.6671 11.9736 56.5861 13.7688 57.2171 15.682L57.6017 16.8363H49.3291C48.9017 16.5477 48.4529 16.3129 47.9827 16.1203H47.9718C47.9504 15.9706 47.929 15.8103 47.8757 15.6606C47.7369 15.2118 47.4588 14.8376 47.1169 14.5814Z" fill="#DFF0FE"/>
<path d="M47.8757 15.6606C47.9289 15.8103 47.9503 15.9705 47.9717 16.1203C48.0469 16.9219 47.7045 17.7021 47.0637 18.1723C47.3523 19.0699 47.0741 20.0964 46.2835 20.684C45.4924 21.2716 44.4554 21.2398 43.7076 20.673C43.0558 21.1652 42.1686 21.2612 41.4312 20.8766C41.3242 20.8228 41.2282 20.7586 41.1317 20.684C40.341 20.0964 40.0629 19.0699 40.3515 18.1723C39.5927 17.6165 39.2399 16.6119 39.5395 15.6606C39.8385 14.7097 40.7043 14.1216 41.6342 14.1216C41.7198 13.8544 41.8477 13.6086 42.0298 13.3952C42.4144 12.8926 43.0234 12.5612 43.7076 12.5612C44.552 12.5612 45.2784 13.0638 45.6421 13.7798C45.6954 13.8867 45.7491 14.0042 45.7809 14.1216C46.2725 14.1216 46.7427 14.2818 47.1169 14.5813C47.4587 14.8376 47.7369 15.2118 47.8757 15.6606V15.6606Z" fill="#DFF0FE"/>
<path d="M43.5902 45.4688L43.7076 45.6932L35.542 54.6708L33.1268 51.9884L40.5013 43.5557C41.8158 43.5557 43.013 44.2931 43.5902 45.4688V45.4688Z" fill="#DFF0FE"/>
<path d="M33.1268 51.9884L35.542 54.6708L44.7763 64.9312H39.4325L22.3321 45.6932L22.4495 45.4688C23.0267 44.2931 24.2238 43.5557 25.5384 43.5557L33.1268 51.9884Z" fill="#DFF0FE"/>
<path d="M39.4326 26.4553C39.4326 27.0456 38.9541 27.5241 38.3638 27.5241C37.7736 27.5241 37.295 27.0456 37.295 26.4553C37.295 25.865 37.7736 25.3865 38.3638 25.3865C38.9541 25.3865 39.4326 25.865 39.4326 26.4553Z" fill="#4788C7"/>
<path d="M28.7448 26.4553C28.7448 27.0456 28.2663 27.5241 27.676 27.5241C27.0857 27.5241 26.6072 27.0456 26.6072 26.4553C26.6072 25.865 27.0857 25.3865 27.676 25.3865C28.2663 25.3865 28.7448 25.865 28.7448 26.4553Z" fill="#4788C7"/>
<path d="M28.7448 35.0055C29.8219 35.0055 30.875 35.4407 31.6338 36.1995L33.0198 37.5856L34.4059 36.1995C35.1647 35.4407 36.2178 35.0055 37.2949 35.0055V32.8679C35.7142 32.8679 34.1653 33.4848 33.0198 34.5661C31.8738 33.4848 30.3255 32.8679 28.7448 32.8679V35.0055Z" fill="#4788C7"/>
<path d="M42.6388 15.7675H44.7764V17.9052H42.6388V15.7675Z" fill="#4788C7"/>
<path d="M18.057 20.0427H20.1947V22.1803H18.057V20.0427Z" fill="#4788C7"/>
<path d="M58.1689 53.0744C57.7556 50.0195 55.5591 47.5584 52.5698 46.8037L44.4298 44.7721C43.8114 43.671 42.7755 42.908 41.57 42.6195V38.7838C41.6311 38.7185 41.6953 38.6533 41.7537 38.5881L49.3922 44.0441L49.9793 43.0171C52.8678 37.9566 54.3953 32.2073 54.3953 26.3911V25.6005C54.3953 23.9321 54.125 22.2762 53.5916 20.6767C53.2504 19.6601 52.7363 18.7229 52.0887 17.9051H59.0853L58.232 15.3474C57.5719 13.3425 56.6075 11.4507 55.3775 9.73534C54.4188 8.36337 53.2785 7.09472 51.9906 5.96593L51.7244 5.73161C50.7146 4.84132 49.589 4.03452 48.3845 3.3347C46.3508 2.14381 44.1298 1.29944 41.7814 0.825064L40.5013 0.567264V6.34845C40.0055 5.83546 39.4132 5.42632 38.7421 5.1513C37.8314 4.77191 36.8373 4.65971 35.8348 4.8267C34.1272 3.75584 31.9104 3.75584 30.2023 4.8267C29.1998 4.6618 28.2062 4.77087 27.3007 5.14922C26.3666 5.53278 25.5812 6.16372 25.004 6.98774C24.9023 7.01018 24.8146 7.05401 24.7165 7.08272L16.6224 0L15.216 1.60942L22.7125 8.16871C22.628 8.24334 22.5309 8.30544 22.4516 8.38685C22.2168 8.61542 22.0091 8.8654 21.8275 9.12946L13.0518 6.20442L12.3755 8.23081L20.8923 11.0692C20.3454 11.4789 19.8835 11.9778 19.538 12.5602H11.6444V14.6977H18.057V14.9863C15.4148 15.9111 13.3456 17.9802 12.448 20.6767C11.9147 22.2762 11.6444 23.9331 11.6444 25.6005V26.3911C11.6444 32.2062 13.1713 37.9556 16.0604 43.0171L16.6474 44.0441L24.2859 38.5881C24.3444 38.6533 24.4086 38.7185 24.4696 38.7838V42.6195C23.2563 42.9091 22.2168 43.6778 21.6072 44.7732L13.4667 46.8048C10.4806 47.5584 8.28304 50.0195 7.87024 53.0765L6.14862 65.9999H59.89L58.1689 53.0744ZM26.6072 40.5858C28.4969 41.822 30.708 42.4869 33.0198 42.4869C35.3317 42.4869 37.5428 41.821 39.4325 40.5858V43.1538L33.1148 50.378L26.6072 43.1455V40.5858ZM24.4002 14.5151C26.0749 12.651 29.3783 11.4925 33.0198 11.4925C35.7815 11.4925 38.4128 12.2022 40.2424 13.3779C39.4387 13.7573 38.7995 14.4467 38.5187 15.3401C38.1628 16.4741 38.4321 17.6849 39.1867 18.5465C39.1632 18.7771 39.1804 19.0062 39.2039 19.2327C38.5547 19.0287 38.1148 18.9739 37.6581 18.9739C35.9663 18.9739 34.3036 19.597 33.0198 20.6981C31.7361 19.597 30.0734 18.9739 28.3815 18.9739C27.2058 18.9739 26.0822 19.2656 25.0818 19.7989C23.9994 18.9154 23.4009 17.8753 23.4009 16.8363C23.4009 16.0358 23.7364 15.2556 24.4002 14.5151ZM44.6876 14.2604C44.7101 14.3069 44.7367 14.3549 44.7508 14.405L44.9663 15.1904H45.782C46.0299 15.1904 46.2684 15.2707 46.4745 15.4351C46.653 15.5698 46.7887 15.7634 46.8701 16.0212C46.8946 16.0916 46.8988 16.1704 46.9097 16.2419V16.2435C46.9405 16.6641 46.7579 17.0706 46.4307 17.3107L45.8096 17.7673L46.046 18.5016C46.2063 18.9984 46.046 19.5307 45.6463 19.8266C45.2518 20.1199 44.745 20.1162 44.3531 19.8224L43.7097 19.335L43.0641 19.8203C42.7306 20.0724 42.2818 20.1152 41.9045 19.92C41.8748 19.9049 41.8383 19.8803 41.7689 19.8266C41.3691 19.5307 41.2089 18.9984 41.3691 18.5016L41.605 17.7663L40.9835 17.3107C40.5738 17.0117 40.4026 16.4773 40.5587 15.9826C40.7084 15.5103 41.1405 15.1914 41.6342 15.1914H42.4134L42.6513 14.4488C42.6988 14.3042 42.7614 14.1868 42.8783 14.0459C43.3303 13.4536 44.3328 13.5627 44.6876 14.2604ZM23.4009 26.0921C23.4009 24.4654 24.1951 22.9432 25.5415 22.0127C26.3624 21.4224 27.3446 21.1114 28.3815 21.1114C29.6893 21.1114 30.972 21.6437 31.901 22.5726L33.0198 23.6915L34.1387 22.5726C35.0676 21.6437 36.3498 21.1114 37.6581 21.1114C38.0229 21.1114 38.4352 21.1114 40.6646 22.129C40.8509 22.2616 41.0142 22.4035 41.1807 22.5768C42.1216 23.5068 42.6388 24.7551 42.6388 26.0921V30.7304C42.6388 32.8251 41.9729 34.8207 40.7173 36.4985C40.435 36.8717 40.1187 37.2328 39.7487 37.6017C37.9457 39.3735 35.5571 40.3493 33.0198 40.3493C30.4815 40.3493 28.0908 39.3724 26.293 37.6049C25.922 37.2349 25.6047 36.8727 25.3255 36.5027C24.0668 34.8207 23.4009 32.8251 23.4009 30.7304V26.0921ZM52.2578 26.3911C52.2578 31.4412 51.0288 36.4364 48.6914 40.9161L43.0365 36.8769C44.1746 35.0269 44.7764 32.9238 44.7764 30.7304V26.0921C44.7764 24.586 44.3093 23.1602 43.4649 21.9803C43.5442 21.9527 43.6262 21.9396 43.7034 21.9057C44.1178 22.0904 44.5603 22.1833 45.0018 22.1833C45.674 22.1833 46.3461 21.9699 46.9212 21.5409C47.8642 20.8411 48.3448 19.6956 48.2274 18.5433C48.4398 18.2986 48.6006 18.0173 48.7342 17.7235C48.7425 17.7287 48.7509 17.7329 48.7597 17.7397C50.0633 18.5626 51.0596 19.8459 51.5653 21.353C52.0235 22.7349 52.2578 24.1627 52.2578 25.6005V26.3911ZM47.3074 5.18261C48.3949 5.81407 49.4063 6.53893 50.3128 7.33738L50.581 7.57327C51.7406 8.58985 52.7655 9.73117 53.6334 10.9732C54.6923 12.4501 55.5272 14.0605 56.1169 15.7686H49.6224C49.3912 15.6266 49.1516 15.4962 48.9048 15.3756C48.9017 15.3657 48.8996 15.3532 48.8965 15.3443C48.6955 14.7029 48.2927 14.1294 47.7828 13.7464C47.5026 13.523 47.179 13.3691 46.8403 13.2516C46.4552 12.3206 45.8279 11.5363 45.0049 10.9612C44.9945 10.9174 44.9825 10.8782 44.971 10.8406C44.7476 9.90651 44.2707 9.06005 43.6069 8.40825C43.3151 8.10661 42.9848 7.86603 42.6388 7.65468V3.22459C44.2837 3.67234 45.8483 4.32728 47.3074 5.18261V5.18261ZM22.5231 12.5419L22.9917 12.2805L23.0601 11.7492C23.1013 11.4303 23.1827 11.1386 23.3174 10.8365C23.4609 10.4952 23.6764 10.1768 23.9619 9.89816C24.2218 9.63201 24.5401 9.41596 24.9033 9.26306C25.1846 9.13781 25.4763 9.05692 25.7947 9.01517L26.3228 8.94681L26.5858 8.48287C26.9375 7.86186 27.4662 7.3927 28.1195 7.12446C28.9112 6.79204 29.6726 6.87554 30.1684 7.00235L30.6694 7.13073L31.0811 6.81761C31.4819 6.51336 32.1447 6.14858 33.0198 6.14858C33.895 6.14858 34.5578 6.51336 34.9586 6.81761L35.3698 7.13073L35.8713 7.00235C36.3681 6.87658 37.1258 6.79517 37.9253 7.12655C38.5719 7.3927 39.1021 7.86186 39.4539 8.48287L39.7169 8.94681L40.2445 9.01517C40.5634 9.05692 40.8551 9.13781 41.1572 9.27245C41.4985 9.41596 41.8169 9.63201 42.0924 9.91382C42.4859 10.3 42.7625 10.7916 42.9112 11.4048C42.9305 11.4658 42.9368 11.529 42.9488 11.5911C42.6132 11.6741 42.3043 11.8228 42.0167 12.0044C39.8056 10.336 36.5299 9.3549 33.0198 9.3549C29.1294 9.3549 25.5254 10.5745 23.3591 12.5612H22.4986C22.5074 12.556 22.5137 12.5477 22.5231 12.5419ZM13.7819 26.3911V25.6005C13.7819 24.1627 14.0157 22.7339 14.4744 21.353C15.0793 19.538 16.3803 18.0987 18.057 17.295V17.9051H20.1945V14.6988H21.756C21.4408 15.3882 21.2633 16.1062 21.2633 16.8363C21.2633 18.3831 21.9944 19.8683 23.3283 21.1041C22.0242 22.4176 21.2633 24.2003 21.2633 26.0921V30.7304C21.2633 32.9227 21.864 35.0248 23.0032 36.8769L17.3473 40.9161C15.0109 36.4375 13.7819 31.4412 13.7819 26.3911V26.3911ZM19.2735 63.8624C19.1858 63.4219 19.1258 62.9773 19.1258 62.5264C19.1258 61.4696 19.3747 60.4071 19.847 59.4558C20.7738 57.6026 21.2633 55.5345 21.2633 53.4742V52.1059H19.1258V53.4742C19.1258 55.2031 18.713 56.9409 17.9338 58.5023C17.3154 59.7496 16.9882 61.1414 16.9882 62.5264C16.9882 62.9752 17.0248 63.4209 17.0905 63.8624H8.58989L9.99005 53.3604C10.2849 51.1759 11.8557 49.4167 13.988 48.8781L23.0554 46.6148L23.4092 45.9401C23.7427 45.2616 24.3668 44.7987 25.098 44.6652L42.3768 63.8624H19.2735ZM48.9486 63.8624C49.0149 63.4209 49.0514 62.9752 49.0514 62.5264C49.0514 61.1414 48.7242 59.7496 48.1043 58.4992C47.3262 56.9409 46.9139 55.2031 46.9139 53.4742V52.1059H44.7764V53.4742C44.7764 55.5345 45.2659 57.6016 46.1911 59.4526C46.665 60.4071 46.9139 61.4696 46.9139 62.5264C46.9139 62.9773 46.8539 63.4219 46.7662 63.8624H45.2528L34.5557 51.9775L40.9501 44.6662C41.6781 44.8019 42.3012 45.2679 42.644 45.9656L42.9838 46.6133L52.048 48.8771C54.1834 49.4157 55.7548 51.1749 56.0496 53.3573L57.4498 63.8624H48.9486Z" fill="#4788C7"/>
</g>
<defs>
<clipPath id="clip0">
<rect width="66" height="66" fill="white"/>
</clipPath>
</defs>
</svg>
