<svg width="66" height="66" viewBox="0 0 66 66" fill="none" xmlns="http://www.w3.org/2000/svg">
<g clip-path="url(#clip0)">
<path d="M10.4747 17.8519C13.2425 16.0103 14.9032 12.902 14.9032 9.58063H19.1613C19.1613 13.0299 17.9902 16.3721 15.8399 19.0547L14.9032 20.2258H8.51611V19.1613L10.4747 17.8519Z" fill="#DFF0FE"/>
<path d="M21.4395 19.8427C22.7488 16.5852 23.4193 13.0933 23.4193 9.58063H28.7419C28.7419 13.0933 28.0714 16.5852 26.762 19.8427L26.6129 20.2258H21.2903L21.4395 19.8427Z" fill="#DFF0FE"/>
<path d="M54.2903 20.2258H51.0967L50.1601 19.0547C48.0098 16.3721 46.8387 13.0299 46.8387 9.58063H51.0967C51.0967 11.2413 51.5121 12.8485 52.2678 14.2753C53.034 15.6912 54.1411 16.9257 55.5253 17.8519L57.4838 19.1613V20.2258H54.2903Z" fill="#DFF0FE"/>
<path d="M42.5806 9.58063C42.5806 13.0933 43.2512 16.5852 44.5605 19.8427L44.7097 20.2258H39.3871L39.2379 19.8427C37.9286 16.5852 37.2581 13.0933 37.2581 9.58063H42.5806Z" fill="#DFF0FE"/>
<path d="M40.4516 57.4838V64.9354H36.1935V56.4193H29.8064V64.9354H25.5483V52.1613H40.4516V57.4838Z" fill="#DFF0FE"/>
<path d="M29.1676 33C29.7212 32.6595 30.3283 32.4038 30.9666 32.2229C31.6163 32.0311 32.2972 31.9355 33 31.9355C33.7027 31.9355 34.3836 32.0311 35.0333 32.2229C35.6716 32.4038 36.2787 32.6699 36.8323 33C38.4078 33.9476 39.6106 35.4591 40.1428 37.2581H40.4516V45.7742H36.1935V39.3871C36.1935 38.5035 35.8317 37.7051 35.2569 37.1302C34.682 36.5553 33.8836 36.1936 33 36.1936C31.2327 36.1936 29.8064 37.6198 29.8064 39.3871V45.7742H25.5483V37.2581H25.8571C26.3893 35.4591 27.5921 33.9476 29.1676 33V33Z" fill="#DFF0FE"/>
<path d="M41.5161 24.4838H50.0322V28.7419H41.5161V24.4838Z" fill="#DFF0FE"/>
<path d="M15.9677 24.4838H24.4838V28.7419H15.9677V24.4838Z" fill="#DFF0FE"/>
<path d="M18.0968 33C18.0968 37.2264 17.4153 41.4309 16.0743 45.4441L15.9677 45.7742H9.58063L10.2938 44.6993C12.6037 41.2396 13.8387 37.1624 13.8387 33H18.0968Z" fill="#DFF0FE"/>
<path d="M50.0322 33H52.1613C52.1613 37.1624 53.3963 41.2396 55.7062 44.6993L56.4193 45.7742H50.0322L49.9257 45.4441C48.5846 41.4309 47.9032 37.2264 47.9032 33H50.0322Z" fill="#DFF0FE"/>
<path d="M31.9355 39.3871H34.0645V41.5161H31.9355V39.3871Z" fill="#4788C7"/>
<path d="M63.3715 42.2849C60.2049 40.0238 58.1097 36.664 57.4688 32.8254L57.3212 31.9355H55.3548V21.2903H58.5484V18.5916L56.1158 16.9704C53.6401 15.3185 52.1613 12.5559 52.1613 9.58065V6.19114C53.3973 5.75036 54.2903 4.57929 54.2903 3.19355C54.2903 1.43304 52.8573 0 51.0968 0V2.12903C51.6841 2.12903 52.1613 2.60723 52.1613 3.19355C52.1613 3.77986 51.6841 4.25806 51.0968 4.25806H14.9032C14.3159 4.25806 13.8387 3.77986 13.8387 3.19355C13.8387 2.60723 14.3159 2.12903 14.9032 2.12903V0C13.1427 0 11.7097 1.43304 11.7097 3.19355C11.7097 4.57929 12.6027 5.75036 13.8387 6.19114V9.58065C13.8387 12.5559 12.3599 15.3185 9.8842 16.9694L7.45161 18.5916V21.2903H10.6452V31.9355H8.67882L8.53016 32.8243C7.88927 36.6629 5.79402 40.0228 2.62698 42.2849L0 44.1613V46.8387H6.3871V63.871H4.25806V66H61.7419V63.871H59.6129V46.8387H66V44.1613L63.3715 42.2849ZM53.2258 31.9355H51.0968V21.2903H53.2258V31.9355ZM35.129 63.871H30.871V57.4839H35.129V63.871ZM28.7419 55.3548V63.871H26.6129V53.2258H39.3871V63.871H37.2581V55.3548H28.7419ZM24.4839 46.8387V48.9677H12.7742V46.8387H24.4839ZM24.4839 56.4194H19.1613V51.0968H24.4839V56.4194ZM12.7742 51.0968H17.0323V56.4194H12.7742V51.0968ZM12.7742 58.5484H17.0323V63.871H12.7742V58.5484ZM19.1613 58.5484H24.4839V63.871H19.1613V58.5484ZM53.2258 56.4194H48.9677V51.0968H53.2258V56.4194ZM46.8387 56.4194H41.5161V51.0968H46.8387V56.4194ZM41.5161 58.5484H46.8387V63.871H41.5161V58.5484ZM48.9677 58.5484H53.2258V63.871H48.9677V58.5484ZM53.2258 48.9677H41.5161V46.8387H53.2258V48.9677ZM39.3871 51.0968H26.6129V46.8387H39.3871V51.0968ZM35.129 44.7097H30.871V39.3871C30.871 38.2129 31.8258 37.2581 33 37.2581C34.1742 37.2581 35.129 38.2129 35.129 39.3871V44.7097ZM37.2581 44.7097V39.3871C37.2581 37.0387 35.3484 35.129 33 35.129C30.6516 35.129 28.7419 37.0387 28.7419 39.3871V44.7097H26.6129V38.3226H26.6555L26.8811 37.5616C27.6805 34.8759 30.1973 33 33 33C35.8027 33 38.3195 34.8759 39.1189 37.5616L39.3445 38.3226H39.3871V44.7097H37.2581ZM34.0645 30.9531C33.7131 30.9084 33.3597 30.871 33 30.871C32.6403 30.871 32.2869 30.9084 31.9355 30.9531V29.8065C31.9355 29.2201 32.4126 28.7419 33 28.7419C33.5874 28.7419 34.0645 29.2201 34.0645 29.8065V30.9531ZM37.0559 31.9355C36.7757 31.7821 36.4893 31.647 36.1936 31.5259V29.8065C36.1936 28.0459 34.7605 26.6129 33 26.6129C31.2395 26.6129 29.8065 28.0459 29.8065 29.8065V31.5259C29.5107 31.647 29.2233 31.7821 28.9441 31.9355H25.5484V21.2903H40.4516V31.9355H37.0559ZM23.4194 21.2903V23.4194H17.0323V21.2903H23.4194ZM17.0323 25.5484H23.4194V31.9355H17.0323V25.5484ZM48.9677 23.4194H42.5806V21.2903H48.9677V23.4194ZM42.5806 25.5484H48.9677V31.9355H42.5806V25.5484ZM54.9343 18.7408L55.5643 19.1613H34.0645V10.6452H50.0832C50.3997 13.9208 52.1623 16.893 54.9343 18.7408ZM15.9677 6.3871H50.0323V8.51613H15.9677V6.3871ZM11.0657 18.7408C13.8377 16.8919 15.6013 13.9208 15.9178 10.6452H31.9355V19.1613H10.4357L11.0657 18.7408ZM12.7742 21.2903H14.9032V31.9355H12.7742V21.2903ZM3.86511 44.0178C7.24838 41.6024 9.56453 38.0939 10.458 34.0645H26.3681C25.853 34.7023 25.4226 35.4165 25.1066 36.1936H21.2903V38.3226H24.4839V44.7097H2.89675L3.86511 44.0178ZM8.51613 46.8387H10.6452V63.871H8.51613V46.8387ZM57.4839 63.871H55.3548V46.8387H57.4839V63.871ZM41.5161 44.7097V38.3226H44.7097V36.1936H40.8924C40.5764 35.4165 40.147 34.7023 39.6309 34.0645H55.5409C56.4344 38.0928 58.7516 41.6024 62.1339 44.0168L63.1033 44.7097H41.5161Z" fill="#4788C7"/>
<path d="M31.9355 47.9032H34.0645V50.0322H31.9355V47.9032Z" fill="#4788C7"/>
<path d="M36.1935 47.9032H38.3226V50.0322H36.1935V47.9032Z" fill="#4788C7"/>
<path d="M27.6774 47.9032H29.8065V50.0322H27.6774V47.9032Z" fill="#4788C7"/>
<path d="M0 63.871H2.12903V66H0V63.871Z" fill="#4788C7"/>
<path d="M63.871 63.871H66V66H63.871V63.871Z" fill="#4788C7"/>
</g>
<defs>
<clipPath id="clip0">
<rect width="66" height="66" fill="white"/>
</clipPath>
</defs>
</svg>
