<?xml version="1.0" standalone="no"?>
<!DOCTYPE svg PUBLIC "-//W3C//DTD SVG 20010904//EN"
 "http://www.w3.org/TR/2001/REC-SVG-20010904/DTD/svg10.dtd">
<svg version="1.0" xmlns="http://www.w3.org/2000/svg"
 width="260.000000pt" height="260.000000pt" viewBox="0 0 260.000000 260.000000"
 preserveAspectRatio="xMidYMid meet">
<metadata>
Created by potrace 1.11, written by Peter Selinger 2001-2013
</metadata>
<g transform="translate(0.000000,260.000000) scale(0.100000,-0.100000)"
fill="#000000" stroke="none">
<path d="M530 2590 c-320 -28 -456 -138 -507 -410 -16 -86 -18 -169 -18 -880
0 -711 2 -794 18 -880 45 -238 159 -353 397 -397 86 -16 173 -18 880 -18 707
0 794 2 880 18 238 44 352 159 397 397 16 86 18 169 18 880 0 707 -2 794 -18
880 -43 234 -158 351 -387 396 -74 14 -182 17 -825 19 -407 2 -783 -1 -835 -5z
m1307 -402 l113 -113 0 -645 c0 -534 -3 -656 -15 -708 -48 -203 -191 -334
-432 -394 -74 -19 -115 -22 -253 -22 -150 0 -173 3 -255 28 -94 28 -217 84
-298 136 l-48 30 63 81 c34 44 66 83 70 85 5 3 26 -10 49 -29 88 -76 250 -137
364 -137 128 0 238 72 263 173 9 33 12 242 12 724 l0 678 -75 113 -75 112 202
0 203 0 112 -112z"/>
</g>
</svg>
